<?xml version="1.0" encoding="UTF-8" standalone="no"?>
<!DOCTYPE svg PUBLIC "-//W3C//DTD SVG 1.1//EN"
 "http://www.w3.org/Graphics/SVG/1.1/DTD/svg11.dtd">
<!-- Generated by graphviz version 2.44.1 (20200629.0846)
 -->
<!-- Title: dependencies Pages: 1 -->
<svg width="4108pt" height="284pt"
 viewBox="0.00 0.00 4108.00 284.00" xmlns="http://www.w3.org/2000/svg" xmlns:xlink="http://www.w3.org/1999/xlink">
<g id="graph0" class="graph" transform="scale(1 1) rotate(0) translate(4 280)">
<title>dependencies</title>
<polygon fill="white" stroke="transparent" points="-4,4 -4,-280 4104,-280 4104,4 -4,4"/>
<text text-anchor="start" x="2029.01" y="-42.4" font-family="sans-serif" font-weight="bold" font-size="14.00">Legend</text>
<polygon fill="#ffffb3" stroke="transparent" points="1816,-10 1816,-30 1836,-30 1836,-10 1816,-10"/>
<text text-anchor="start" x="1839.63" y="-15.4" font-family="sans-serif" font-size="14.00"> &#160;Declarations</text>
<polygon fill="#8dd3c7" stroke="transparent" points="1929,-10 1929,-30 1949,-30 1949,-10 1929,-10"/>
<text text-anchor="start" x="1952.73" y="-15.4" font-family="sans-serif" font-size="14.00"> &#160;Module</text>
<polygon fill="#80b1d3" stroke="transparent" points="2015,-10 2015,-30 2035,-30 2035,-10 2015,-10"/>
<text text-anchor="start" x="2038.78" y="-15.4" font-family="sans-serif" font-size="14.00"> &#160;Bootstrap</text>
<polygon fill="#fdb462" stroke="transparent" points="2112,-10 2112,-30 2132,-30 2132,-10 2112,-10"/>
<text text-anchor="start" x="2135.67" y="-15.4" font-family="sans-serif" font-size="14.00"> &#160;Providers</text>
<polygon fill="#fb8072" stroke="transparent" points="2208,-10 2208,-30 2228,-30 2228,-10 2208,-10"/>
<text text-anchor="start" x="2231.73" y="-15.4" font-family="sans-serif" font-size="14.00"> &#160;Exports</text>
<g id="clust1" class="cluster">
<title>cluster_AppModule</title>
<polygon fill="none" stroke="black" stroke-dasharray="1,5" points="8,-70 8,-268 4092,-268 4092,-70 8,-70"/>
</g>
<g id="clust2" class="cluster">
<title>cluster_AppModule_declarations</title>
<polygon fill="none" stroke="black" points="766,-78 766,-130 4084,-130 4084,-78 766,-78"/>
</g>
<g id="clust23" class="cluster">
<title>cluster_AppModule_imports</title>
<polygon fill="none" stroke="black" points="614,-78 614,-130 758,-130 758,-78 614,-78"/>
</g>
<g id="clust25" class="cluster">
<title>cluster_AppModule_bootstrap</title>
<polygon fill="none" stroke="black" points="1929,-208 1929,-260 2053,-260 2053,-208 1929,-208"/>
</g>
<g id="clust26" class="cluster">
<title>cluster_AppModule_providers</title>
<polygon fill="none" stroke="black" points="16,-78 16,-130 606,-130 606,-78 16,-78"/>
</g>
<!-- AppComponent -->
<g id="node1" class="node">
<title>AppComponent</title>
<polygon fill="#ffffb3" stroke="black" points="4075.94,-122 3970.06,-122 3970.06,-86 4075.94,-86 4075.94,-122"/>
<text text-anchor="middle" x="4023" y="-99.8" font-family="Times,serif" font-size="14.00">AppComponent</text>
</g>
<!-- AppModule -->
<g id="node21" class="node">
<title>AppModule</title>
<polygon fill="#8dd3c7" stroke="black" points="2032.66,-187 2029.66,-191 2008.66,-191 2005.66,-187 1949.34,-187 1949.34,-151 2032.66,-151 2032.66,-187"/>
<text text-anchor="middle" x="1991" y="-164.8" font-family="Times,serif" font-size="14.00">AppModule</text>
</g>
<!-- AppComponent&#45;&gt;AppModule -->
<g id="edge1" class="edge">
<title>AppComponent&#45;&gt;AppModule</title>
<path fill="none" stroke="black" d="M4023,-122.15C4023,-145.76 4023,-184 4023,-184 4023,-184 2042.97,-184 2042.97,-184"/>
<polygon fill="black" stroke="black" points="2042.97,-180.5 2032.97,-184 2042.97,-187.5 2042.97,-180.5"/>
</g>
<!-- BookingConfirmComponent -->
<g id="node2" class="node">
<title>BookingConfirmComponent</title>
<polygon fill="#ffffb3" stroke="black" points="3952.5,-122 3775.5,-122 3775.5,-86 3952.5,-86 3952.5,-122"/>
<text text-anchor="middle" x="3864" y="-99.8" font-family="Times,serif" font-size="14.00">BookingConfirmComponent</text>
</g>
<!-- BookingConfirmComponent&#45;&gt;AppModule -->
<g id="edge2" class="edge">
<title>BookingConfirmComponent&#45;&gt;AppModule</title>
<path fill="none" stroke="black" d="M3864,-122.25C3864,-145.02 3864,-181 3864,-181 3864,-181 2042.75,-181 2042.75,-181"/>
<polygon fill="black" stroke="black" points="2042.75,-177.5 2032.75,-181 2042.75,-184.5 2042.75,-177.5"/>
</g>
<!-- BookingConfirmationComponent -->
<g id="node3" class="node">
<title>BookingConfirmationComponent</title>
<polygon fill="#ffffb3" stroke="black" points="3757.49,-122 3552.51,-122 3552.51,-86 3757.49,-86 3757.49,-122"/>
<text text-anchor="middle" x="3655" y="-99.8" font-family="Times,serif" font-size="14.00">BookingConfirmationComponent</text>
</g>
<!-- BookingConfirmationComponent&#45;&gt;AppModule -->
<g id="edge3" class="edge">
<title>BookingConfirmationComponent&#45;&gt;AppModule</title>
<path fill="none" stroke="black" d="M3655,-122.29C3655,-144.21 3655,-178 3655,-178 3655,-178 2042.97,-178 2042.97,-178"/>
<polygon fill="black" stroke="black" points="2042.97,-174.5 2032.97,-178 2042.97,-181.5 2042.97,-174.5"/>
</g>
<!-- BookingDetailsComponent -->
<g id="node4" class="node">
<title>BookingDetailsComponent</title>
<polygon fill="#ffffb3" stroke="black" points="3534.71,-122 3365.29,-122 3365.29,-86 3534.71,-86 3534.71,-122"/>
<text text-anchor="middle" x="3450" y="-99.8" font-family="Times,serif" font-size="14.00">BookingDetailsComponent</text>
</g>
<!-- BookingDetailsComponent&#45;&gt;AppModule -->
<g id="edge4" class="edge">
<title>BookingDetailsComponent&#45;&gt;AppModule</title>
<path fill="none" stroke="black" d="M3450,-122.28C3450,-143.32 3450,-175 3450,-175 3450,-175 2042.7,-175 2042.7,-175"/>
<polygon fill="black" stroke="black" points="2042.7,-171.5 2032.7,-175 2042.7,-178.5 2042.7,-171.5"/>
</g>
<!-- BookingListComponent -->
<g id="node5" class="node">
<title>BookingListComponent</title>
<polygon fill="#ffffb3" stroke="black" points="3347.84,-122 3196.16,-122 3196.16,-86 3347.84,-86 3347.84,-122"/>
<text text-anchor="middle" x="3272" y="-99.8" font-family="Times,serif" font-size="14.00">BookingListComponent</text>
</g>
<!-- BookingListComponent&#45;&gt;AppModule -->
<g id="edge5" class="edge">
<title>BookingListComponent&#45;&gt;AppModule</title>
<path fill="none" stroke="black" d="M3272,-122.22C3272,-142.37 3272,-172 3272,-172 3272,-172 2042.89,-172 2042.89,-172"/>
<polygon fill="black" stroke="black" points="2042.89,-168.5 2032.89,-172 2042.89,-175.5 2042.89,-168.5"/>
</g>
<!-- BookingListDialog -->
<g id="node6" class="node">
<title>BookingListDialog</title>
<polygon fill="#ffffb3" stroke="black" points="3178.11,-122 3053.89,-122 3053.89,-86 3178.11,-86 3178.11,-122"/>
<text text-anchor="middle" x="3116" y="-99.8" font-family="Times,serif" font-size="14.00">BookingListDialog</text>
</g>
<!-- BookingListDialog&#45;&gt;AppModule -->
<g id="edge6" class="edge">
<title>BookingListDialog&#45;&gt;AppModule</title>
<path fill="none" stroke="black" d="M3116,-122.11C3116,-141.34 3116,-169 3116,-169 3116,-169 2042.71,-169 2042.71,-169"/>
<polygon fill="black" stroke="black" points="2042.71,-165.5 2032.71,-169 2042.71,-172.5 2042.71,-165.5"/>
</g>
<!-- BookingSummaryDialog -->
<g id="node7" class="node">
<title>BookingSummaryDialog</title>
<polygon fill="#ffffb3" stroke="black" points="3036.27,-122 2879.73,-122 2879.73,-86 3036.27,-86 3036.27,-122"/>
<text text-anchor="middle" x="2958" y="-99.8" font-family="Times,serif" font-size="14.00">BookingSummaryDialog</text>
</g>
<!-- BookingSummaryDialog&#45;&gt;AppModule -->
<g id="edge7" class="edge">
<title>BookingSummaryDialog&#45;&gt;AppModule</title>
<path fill="none" stroke="black" d="M2958,-122.27C2958,-140.56 2958,-166 2958,-166 2958,-166 2042.86,-166 2042.86,-166"/>
<polygon fill="black" stroke="black" points="2042.86,-162.5 2032.86,-166 2042.86,-169.5 2042.86,-162.5"/>
</g>
<!-- ConfirmationDialogComponent -->
<g id="node8" class="node">
<title>ConfirmationDialogComponent</title>
<polygon fill="#ffffb3" stroke="black" points="2861.37,-122 2666.63,-122 2666.63,-86 2861.37,-86 2861.37,-122"/>
<text text-anchor="middle" x="2764" y="-99.8" font-family="Times,serif" font-size="14.00">ConfirmationDialogComponent</text>
</g>
<!-- ConfirmationDialogComponent&#45;&gt;AppModule -->
<g id="edge8" class="edge">
<title>ConfirmationDialogComponent&#45;&gt;AppModule</title>
<path fill="none" stroke="black" d="M2764,-122.02C2764,-139.37 2764,-163 2764,-163 2764,-163 2042.83,-163 2042.83,-163"/>
<polygon fill="black" stroke="black" points="2042.83,-159.5 2032.83,-163 2042.83,-166.5 2042.83,-159.5"/>
</g>
<!-- ConfirmationTemplateComponent -->
<g id="node9" class="node">
<title>ConfirmationTemplateComponent</title>
<polygon fill="#ffffb3" stroke="black" points="2648.64,-122 2439.36,-122 2439.36,-86 2648.64,-86 2648.64,-122"/>
<text text-anchor="middle" x="2544" y="-99.8" font-family="Times,serif" font-size="14.00">ConfirmationTemplateComponent</text>
</g>
<!-- ConfirmationTemplateComponent&#45;&gt;AppModule -->
<g id="edge9" class="edge">
<title>ConfirmationTemplateComponent&#45;&gt;AppModule</title>
<path fill="none" stroke="black" d="M2544,-122.03C2544,-138.4 2544,-160 2544,-160 2544,-160 2043.02,-160 2043.02,-160"/>
<polygon fill="black" stroke="black" points="2043.02,-156.5 2033.02,-160 2043.02,-163.5 2043.02,-156.5"/>
</g>
<!-- HomeComponent -->
<g id="node10" class="node">
<title>HomeComponent</title>
<polygon fill="#ffffb3" stroke="black" points="2420.55,-122 2305.45,-122 2305.45,-86 2420.55,-86 2420.55,-122"/>
<text text-anchor="middle" x="2363" y="-99.8" font-family="Times,serif" font-size="14.00">HomeComponent</text>
</g>
<!-- HomeComponent&#45;&gt;AppModule -->
<g id="edge10" class="edge">
<title>HomeComponent&#45;&gt;AppModule</title>
<path fill="none" stroke="black" d="M2363,-122.24C2363,-137.57 2363,-157 2363,-157 2363,-157 2042.95,-157 2042.95,-157"/>
<polygon fill="black" stroke="black" points="2042.95,-153.5 2032.95,-157 2042.95,-160.5 2042.95,-153.5"/>
</g>
<!-- ItemDetailsComponent -->
<g id="node11" class="node">
<title>ItemDetailsComponent</title>
<polygon fill="#ffffb3" stroke="black" points="2287.14,-122 2140.86,-122 2140.86,-86 2287.14,-86 2287.14,-122"/>
<text text-anchor="middle" x="2214" y="-99.8" font-family="Times,serif" font-size="14.00">ItemDetailsComponent</text>
</g>
<!-- ItemDetailsComponent&#45;&gt;AppModule -->
<g id="edge11" class="edge">
<title>ItemDetailsComponent&#45;&gt;AppModule</title>
<path fill="none" stroke="black" d="M2214,-122.05C2214,-136.37 2214,-154 2214,-154 2214,-154 2042.68,-154 2042.68,-154"/>
<polygon fill="black" stroke="black" points="2042.68,-150.5 2032.68,-154 2042.68,-157.5 2042.68,-150.5"/>
</g>
<!-- ItemListComponent -->
<g id="node12" class="node">
<title>ItemListComponent</title>
<polygon fill="#ffffb3" stroke="black" points="2122.27,-122 1993.73,-122 1993.73,-86 2122.27,-86 2122.27,-122"/>
<text text-anchor="middle" x="2058" y="-99.8" font-family="Times,serif" font-size="14.00">ItemListComponent</text>
</g>
<!-- ItemListComponent&#45;&gt;AppModule -->
<g id="edge12" class="edge">
<title>ItemListComponent&#45;&gt;AppModule</title>
<path fill="none" stroke="black" d="M2013.22,-122.11C2013.22,-122.11 2013.22,-140.99 2013.22,-140.99"/>
<polygon fill="black" stroke="black" points="2009.72,-140.99 2013.22,-150.99 2016.72,-140.99 2009.72,-140.99"/>
</g>
<!-- ItemListDialog -->
<g id="node13" class="node">
<title>ItemListDialog</title>
<polygon fill="#ffffb3" stroke="black" points="1975.54,-122 1874.46,-122 1874.46,-86 1975.54,-86 1975.54,-122"/>
<text text-anchor="middle" x="1925" y="-99.8" font-family="Times,serif" font-size="14.00">ItemListDialog</text>
</g>
<!-- ItemListDialog&#45;&gt;AppModule -->
<g id="edge13" class="edge">
<title>ItemListDialog&#45;&gt;AppModule</title>
<path fill="none" stroke="black" d="M1962.47,-122.11C1962.47,-122.11 1962.47,-140.99 1962.47,-140.99"/>
<polygon fill="black" stroke="black" points="1958.97,-140.99 1962.47,-150.99 1965.97,-140.99 1958.97,-140.99"/>
</g>
<!-- LoginFormComponent -->
<g id="node14" class="node">
<title>LoginFormComponent</title>
<polygon fill="#ffffb3" stroke="black" points="1856.61,-122 1711.39,-122 1711.39,-86 1856.61,-86 1856.61,-122"/>
<text text-anchor="middle" x="1784" y="-99.8" font-family="Times,serif" font-size="14.00">LoginFormComponent</text>
</g>
<!-- LoginFormComponent&#45;&gt;AppModule -->
<g id="edge14" class="edge">
<title>LoginFormComponent&#45;&gt;AppModule</title>
<path fill="none" stroke="black" d="M1784,-122.05C1784,-136.37 1784,-154 1784,-154 1784,-154 1939.11,-154 1939.11,-154"/>
<polygon fill="black" stroke="black" points="1939.11,-157.5 1949.11,-154 1939.11,-150.5 1939.11,-157.5"/>
</g>
<!-- LogoutComponent -->
<g id="node15" class="node">
<title>LogoutComponent</title>
<polygon fill="#ffffb3" stroke="black" points="1693.78,-122 1572.22,-122 1572.22,-86 1693.78,-86 1693.78,-122"/>
<text text-anchor="middle" x="1633" y="-99.8" font-family="Times,serif" font-size="14.00">LogoutComponent</text>
</g>
<!-- LogoutComponent&#45;&gt;AppModule -->
<g id="edge15" class="edge">
<title>LogoutComponent&#45;&gt;AppModule</title>
<path fill="none" stroke="black" d="M1633,-122.24C1633,-137.57 1633,-157 1633,-157 1633,-157 1939.23,-157 1939.23,-157"/>
<polygon fill="black" stroke="black" points="1939.23,-160.5 1949.23,-157 1939.23,-153.5 1939.23,-160.5"/>
</g>
<!-- MailSenderComponent -->
<g id="node16" class="node">
<title>MailSenderComponent</title>
<polygon fill="#ffffb3" stroke="black" points="1554.15,-122 1407.85,-122 1407.85,-86 1554.15,-86 1554.15,-122"/>
<text text-anchor="middle" x="1481" y="-99.8" font-family="Times,serif" font-size="14.00">MailSenderComponent</text>
</g>
<!-- MailSenderComponent&#45;&gt;AppModule -->
<g id="edge16" class="edge">
<title>MailSenderComponent&#45;&gt;AppModule</title>
<path fill="none" stroke="black" d="M1481,-122.03C1481,-138.4 1481,-160 1481,-160 1481,-160 1939.26,-160 1939.26,-160"/>
<polygon fill="black" stroke="black" points="1939.26,-163.5 1949.26,-160 1939.26,-156.5 1939.26,-163.5"/>
</g>
<!-- NotFoundComponent -->
<g id="node17" class="node">
<title>NotFoundComponent</title>
<polygon fill="#ffffb3" stroke="black" points="1390.11,-122 1251.89,-122 1251.89,-86 1390.11,-86 1390.11,-122"/>
<text text-anchor="middle" x="1321" y="-99.8" font-family="Times,serif" font-size="14.00">NotFoundComponent</text>
</g>
<!-- NotFoundComponent&#45;&gt;AppModule -->
<g id="edge17" class="edge">
<title>NotFoundComponent&#45;&gt;AppModule</title>
<path fill="none" stroke="black" d="M1321,-122.02C1321,-139.37 1321,-163 1321,-163 1321,-163 1939.34,-163 1939.34,-163"/>
<polygon fill="black" stroke="black" points="1939.34,-166.5 1949.34,-163 1939.34,-159.5 1939.34,-166.5"/>
</g>
<!-- TemplateDetailDialog -->
<g id="node18" class="node">
<title>TemplateDetailDialog</title>
<polygon fill="#ffffb3" stroke="black" points="1233.68,-122 1092.32,-122 1092.32,-86 1233.68,-86 1233.68,-122"/>
<text text-anchor="middle" x="1163" y="-99.8" font-family="Times,serif" font-size="14.00">TemplateDetailDialog</text>
</g>
<!-- TemplateDetailDialog&#45;&gt;AppModule -->
<g id="edge18" class="edge">
<title>TemplateDetailDialog&#45;&gt;AppModule</title>
<path fill="none" stroke="black" d="M1163,-122.27C1163,-140.56 1163,-166 1163,-166 1163,-166 1939.09,-166 1939.09,-166"/>
<polygon fill="black" stroke="black" points="1939.09,-169.5 1949.09,-166 1939.09,-162.5 1939.09,-169.5"/>
</g>
<!-- TemplateListComponent -->
<g id="node19" class="node">
<title>TemplateListComponent</title>
<polygon fill="#ffffb3" stroke="black" points="1073.98,-122 918.02,-122 918.02,-86 1073.98,-86 1073.98,-122"/>
<text text-anchor="middle" x="996" y="-99.8" font-family="Times,serif" font-size="14.00">TemplateListComponent</text>
</g>
<!-- TemplateListComponent&#45;&gt;AppModule -->
<g id="edge19" class="edge">
<title>TemplateListComponent&#45;&gt;AppModule</title>
<path fill="none" stroke="black" d="M996,-122.11C996,-141.34 996,-169 996,-169 996,-169 1939.2,-169 1939.2,-169"/>
<polygon fill="black" stroke="black" points="1939.2,-172.5 1949.2,-169 1939.2,-165.5 1939.2,-172.5"/>
</g>
<!-- ToolbarComponent -->
<g id="node20" class="node">
<title>ToolbarComponent</title>
<polygon fill="#ffffb3" stroke="black" points="899.65,-122 774.35,-122 774.35,-86 899.65,-86 899.65,-122"/>
<text text-anchor="middle" x="837" y="-99.8" font-family="Times,serif" font-size="14.00">ToolbarComponent</text>
</g>
<!-- ToolbarComponent&#45;&gt;AppModule -->
<g id="edge20" class="edge">
<title>ToolbarComponent&#45;&gt;AppModule</title>
<path fill="none" stroke="black" d="M837,-122.22C837,-142.37 837,-172 837,-172 837,-172 1939.25,-172 1939.25,-172"/>
<polygon fill="black" stroke="black" points="1939.25,-175.5 1949.25,-172 1939.25,-168.5 1939.25,-175.5"/>
</g>
<!-- AppComponent  -->
<g id="node23" class="node">
<title>AppComponent </title>
<polygon fill="#80b1d3" stroke="black" points="2045.44,-252 1936.56,-252 1936.56,-216 2045.44,-216 2045.44,-252"/>
<text text-anchor="middle" x="1991" y="-229.8" font-family="Times,serif" font-size="14.00">AppComponent </text>
</g>
<!-- AppModule&#45;&gt;AppComponent  -->
<g id="edge22" class="edge">
<title>AppModule&#45;&gt;AppComponent </title>
<path fill="none" stroke="black" stroke-dasharray="1,5" d="M1991,-187.11C1991,-187.11 1991,-205.99 1991,-205.99"/>
<polygon fill="black" stroke="black" points="1987.5,-205.99 1991,-215.99 1994.5,-205.99 1987.5,-205.99"/>
</g>
<!-- AppRoutingModule -->
<g id="node22" class="node">
<title>AppRoutingModule</title>
<polygon fill="#8dd3c7" stroke="black" points="750.27,-122 747.27,-126 726.27,-126 723.27,-122 621.73,-122 621.73,-86 750.27,-86 750.27,-122"/>
<text text-anchor="middle" x="686" y="-99.8" font-family="Times,serif" font-size="14.00">AppRoutingModule</text>
</g>
<!-- AppRoutingModule&#45;&gt;AppModule -->
<g id="edge21" class="edge">
<title>AppRoutingModule&#45;&gt;AppModule</title>
<path fill="none" stroke="black" d="M686,-122.28C686,-143.32 686,-175 686,-175 686,-175 1939.06,-175 1939.06,-175"/>
<polygon fill="black" stroke="black" points="1939.06,-178.5 1949.06,-175 1939.06,-171.5 1939.06,-178.5"/>
</g>
<!-- ComponentBridgingService -->
<g id="node24" class="node">
<title>ComponentBridgingService</title>
<ellipse fill="#fdb462" stroke="black" cx="479" cy="-104" rx="119.29" ry="18"/>
<text text-anchor="middle" x="479" y="-99.8" font-family="Times,serif" font-size="14.00">ComponentBridgingService</text>
</g>
<!-- ComponentBridgingService&#45;&gt;AppModule -->
<g id="edge23" class="edge">
<title>ComponentBridgingService&#45;&gt;AppModule</title>
<path fill="none" stroke="black" d="M479,-122.29C479,-144.21 479,-178 479,-178 479,-178 1938.98,-178 1938.98,-178"/>
<polygon fill="black" stroke="black" points="1938.98,-181.5 1948.98,-178 1938.98,-174.5 1938.98,-181.5"/>
</g>
<!-- JwtInterceptor -->
<g id="node25" class="node">
<title>JwtInterceptor</title>
<ellipse fill="#fdb462" stroke="black" cx="275" cy="-104" rx="66.61" ry="18"/>
<text text-anchor="middle" x="275" y="-99.8" font-family="Times,serif" font-size="14.00">JwtInterceptor</text>
</g>
<!-- JwtInterceptor&#45;&gt;AppModule -->
<g id="edge24" class="edge">
<title>JwtInterceptor&#45;&gt;AppModule</title>
<path fill="none" stroke="black" d="M275,-122.25C275,-145.02 275,-181 275,-181 275,-181 1939.01,-181 1939.01,-181"/>
<polygon fill="black" stroke="black" points="1939.01,-184.5 1949.01,-181 1939.01,-177.5 1939.01,-184.5"/>
</g>
<!-- RefreshInterceptor -->
<g id="node26" class="node">
<title>RefreshInterceptor</title>
<ellipse fill="#fdb462" stroke="black" cx="107" cy="-104" rx="83.34" ry="18"/>
<text text-anchor="middle" x="107" y="-99.8" font-family="Times,serif" font-size="14.00">RefreshInterceptor</text>
</g>
<!-- RefreshInterceptor&#45;&gt;AppModule -->
<g id="edge25" class="edge">
<title>RefreshInterceptor&#45;&gt;AppModule</title>
<path fill="none" stroke="black" d="M107,-122.15C107,-145.76 107,-184 107,-184 107,-184 1939.01,-184 1939.01,-184"/>
<polygon fill="black" stroke="black" points="1939.01,-187.5 1949.01,-184 1939.01,-180.5 1939.01,-187.5"/>
</g>
</g>
</svg>
