<?xml version="1.0" encoding="UTF-8" standalone="no"?>
<!DOCTYPE svg PUBLIC "-//W3C//DTD SVG 1.1//EN"
 "http://www.w3.org/Graphics/SVG/1.1/DTD/svg11.dtd">
<!-- Generated by graphviz version 2.44.1 (20200629.0846)
 -->
<!-- Title: dependencies Pages: 1 -->
<svg width="4108pt" height="284pt"
 viewBox="0.00 0.00 4108.00 284.00" xmlns="http://www.w3.org/2000/svg" xmlns:xlink="http://www.w3.org/1999/xlink">
<g id="graph0" class="graph" transform="scale(1 1) rotate(0) translate(4 280)">
<title>dependencies</title>
<polygon fill="white" stroke="transparent" points="-4,4 -4,-280 4104,-280 4104,4 -4,4"/>
<text text-anchor="start" x="2029.01" y="-42.4" font-family="sans-serif" font-weight="bold" font-size="14.00">Legend</text>
<polygon fill="#ffffb3" stroke="transparent" points="1816,-10 1816,-30 1836,-30 1836,-10 1816,-10"/>
<text text-anchor="start" x="1839.63" y="-15.4" font-family="sans-serif" font-size="14.00"> &#160;Declarations</text>
<polygon fill="#8dd3c7" stroke="transparent" points="1929,-10 1929,-30 1949,-30 1949,-10 1929,-10"/>
<text text-anchor="start" x="1952.73" y="-15.4" font-family="sans-serif" font-size="14.00"> &#160;Module</text>
<polygon fill="#80b1d3" stroke="transparent" points="2015,-10 2015,-30 2035,-30 2035,-10 2015,-10"/>
<text text-anchor="start" x="2038.78" y="-15.4" font-family="sans-serif" font-size="14.00"> &#160;Bootstrap</text>
<polygon fill="#fdb462" stroke="transparent" points="2112,-10 2112,-30 2132,-30 2132,-10 2112,-10"/>
<text text-anchor="start" x="2135.67" y="-15.4" font-family="sans-serif" font-size="14.00"> &#160;Providers</text>
<polygon fill="#fb8072" stroke="transparent" points="2208,-10 2208,-30 2228,-30 2228,-10 2208,-10"/>
<text text-anchor="start" x="2231.73" y="-15.4" font-family="sans-serif" font-size="14.00"> &#160;Exports</text>
<g id="clust1" class="cluster">
<title>cluster_AppModule</title>
<polygon fill="none" stroke="black" stroke-dasharray="1,5" points="8,-70 8,-268 4092,-268 4092,-70 8,-70"/>
</g>
<g id="clust23" class="cluster">
<title>cluster_AppModule_imports</title>
<polygon fill="none" stroke="black" points="3940,-78 3940,-130 4084,-130 4084,-78 3940,-78"/>
</g>
<g id="clust2" class="cluster">
<title>cluster_AppModule_declarations</title>
<polygon fill="none" stroke="black" points="614,-78 614,-130 3932,-130 3932,-78 614,-78"/>
</g>
<g id="clust25" class="cluster">
<title>cluster_AppModule_bootstrap</title>
<polygon fill="none" stroke="black" points="1922,-208 1922,-260 2046,-260 2046,-208 1922,-208"/>
</g>
<g id="clust26" class="cluster">
<title>cluster_AppModule_providers</title>
<polygon fill="none" stroke="black" points="16,-78 16,-130 606,-130 606,-78 16,-78"/>
</g>
<!-- AppComponent -->
<g id="node1" class="node">
<title>AppComponent</title>
<polygon fill="#ffffb3" stroke="black" points="3923.94,-122 3818.06,-122 3818.06,-86 3923.94,-86 3923.94,-122"/>
<text text-anchor="middle" x="3871" y="-99.8" font-family="Times,serif" font-size="14.00">AppComponent</text>
</g>
<!-- AppModule -->
<g id="node21" class="node">
<title>AppModule</title>
<polygon fill="#8dd3c7" stroke="black" points="2025.66,-187 2022.66,-191 2001.66,-191 1998.66,-187 1942.34,-187 1942.34,-151 2025.66,-151 2025.66,-187"/>
<text text-anchor="middle" x="1984" y="-164.8" font-family="Times,serif" font-size="14.00">AppModule</text>
</g>
<!-- AppComponent&#45;&gt;AppModule -->
<g id="edge1" class="edge">
<title>AppComponent&#45;&gt;AppModule</title>
<path fill="none" stroke="black" d="M3871,-122.25C3871,-145.02 3871,-181 3871,-181 3871,-181 2036.06,-181 2036.06,-181"/>
<polygon fill="black" stroke="black" points="2036.06,-177.5 2026.06,-181 2036.06,-184.5 2036.06,-177.5"/>
</g>
<!-- BookingConfirmComponent -->
<g id="node2" class="node">
<title>BookingConfirmComponent</title>
<polygon fill="#ffffb3" stroke="black" points="3800.5,-122 3623.5,-122 3623.5,-86 3800.5,-86 3800.5,-122"/>
<text text-anchor="middle" x="3712" y="-99.8" font-family="Times,serif" font-size="14.00">BookingConfirmComponent</text>
</g>
<!-- BookingConfirmComponent&#45;&gt;AppModule -->
<g id="edge2" class="edge">
<title>BookingConfirmComponent&#45;&gt;AppModule</title>
<path fill="none" stroke="black" d="M3712,-122.29C3712,-144.21 3712,-178 3712,-178 3712,-178 2035.86,-178 2035.86,-178"/>
<polygon fill="black" stroke="black" points="2035.86,-174.5 2025.86,-178 2035.86,-181.5 2035.86,-174.5"/>
</g>
<!-- BookingConfirmationComponent -->
<g id="node3" class="node">
<title>BookingConfirmationComponent</title>
<polygon fill="#ffffb3" stroke="black" points="3605.49,-122 3400.51,-122 3400.51,-86 3605.49,-86 3605.49,-122"/>
<text text-anchor="middle" x="3503" y="-99.8" font-family="Times,serif" font-size="14.00">BookingConfirmationComponent</text>
</g>
<!-- BookingConfirmationComponent&#45;&gt;AppModule -->
<g id="edge3" class="edge">
<title>BookingConfirmationComponent&#45;&gt;AppModule</title>
<path fill="none" stroke="black" d="M3503,-122.28C3503,-143.32 3503,-175 3503,-175 3503,-175 2035.81,-175 2035.81,-175"/>
<polygon fill="black" stroke="black" points="2035.81,-171.5 2025.81,-175 2035.81,-178.5 2035.81,-171.5"/>
</g>
<!-- BookingDetailsComponent -->
<g id="node4" class="node">
<title>BookingDetailsComponent</title>
<polygon fill="#ffffb3" stroke="black" points="3382.71,-122 3213.29,-122 3213.29,-86 3382.71,-86 3382.71,-122"/>
<text text-anchor="middle" x="3298" y="-99.8" font-family="Times,serif" font-size="14.00">BookingDetailsComponent</text>
</g>
<!-- BookingDetailsComponent&#45;&gt;AppModule -->
<g id="edge4" class="edge">
<title>BookingDetailsComponent&#45;&gt;AppModule</title>
<path fill="none" stroke="black" d="M3298,-122.22C3298,-142.37 3298,-172 3298,-172 3298,-172 2035.86,-172 2035.86,-172"/>
<polygon fill="black" stroke="black" points="2035.86,-168.5 2025.86,-172 2035.86,-175.5 2035.86,-168.5"/>
</g>
<!-- BookingListComponent -->
<g id="node5" class="node">
<title>BookingListComponent</title>
<polygon fill="#ffffb3" stroke="black" points="3195.84,-122 3044.16,-122 3044.16,-86 3195.84,-86 3195.84,-122"/>
<text text-anchor="middle" x="3120" y="-99.8" font-family="Times,serif" font-size="14.00">BookingListComponent</text>
</g>
<!-- BookingListComponent&#45;&gt;AppModule -->
<g id="edge5" class="edge">
<title>BookingListComponent&#45;&gt;AppModule</title>
<path fill="none" stroke="black" d="M3120,-122.11C3120,-141.34 3120,-169 3120,-169 3120,-169 2035.78,-169 2035.78,-169"/>
<polygon fill="black" stroke="black" points="2035.78,-165.5 2025.78,-169 2035.78,-172.5 2035.78,-165.5"/>
</g>
<!-- BookingListDialog -->
<g id="node6" class="node">
<title>BookingListDialog</title>
<polygon fill="#ffffb3" stroke="black" points="3026.11,-122 2901.89,-122 2901.89,-86 3026.11,-86 3026.11,-122"/>
<text text-anchor="middle" x="2964" y="-99.8" font-family="Times,serif" font-size="14.00">BookingListDialog</text>
</g>
<!-- BookingListDialog&#45;&gt;AppModule -->
<g id="edge6" class="edge">
<title>BookingListDialog&#45;&gt;AppModule</title>
<path fill="none" stroke="black" d="M2964,-122.27C2964,-140.56 2964,-166 2964,-166 2964,-166 2035.8,-166 2035.8,-166"/>
<polygon fill="black" stroke="black" points="2035.8,-162.5 2025.8,-166 2035.8,-169.5 2035.8,-162.5"/>
</g>
<!-- BookingSummaryDialog -->
<g id="node7" class="node">
<title>BookingSummaryDialog</title>
<polygon fill="#ffffb3" stroke="black" points="2884.27,-122 2727.73,-122 2727.73,-86 2884.27,-86 2884.27,-122"/>
<text text-anchor="middle" x="2806" y="-99.8" font-family="Times,serif" font-size="14.00">BookingSummaryDialog</text>
</g>
<!-- BookingSummaryDialog&#45;&gt;AppModule -->
<g id="edge7" class="edge">
<title>BookingSummaryDialog&#45;&gt;AppModule</title>
<path fill="none" stroke="black" d="M2806,-122.02C2806,-139.37 2806,-163 2806,-163 2806,-163 2035.89,-163 2035.89,-163"/>
<polygon fill="black" stroke="black" points="2035.89,-159.5 2025.89,-163 2035.89,-166.5 2035.89,-159.5"/>
</g>
<!-- ConfirmationDialogComponent -->
<g id="node8" class="node">
<title>ConfirmationDialogComponent</title>
<polygon fill="#ffffb3" stroke="black" points="2709.37,-122 2514.63,-122 2514.63,-86 2709.37,-86 2709.37,-122"/>
<text text-anchor="middle" x="2612" y="-99.8" font-family="Times,serif" font-size="14.00">ConfirmationDialogComponent</text>
</g>
<!-- ConfirmationDialogComponent&#45;&gt;AppModule -->
<g id="edge8" class="edge">
<title>ConfirmationDialogComponent&#45;&gt;AppModule</title>
<path fill="none" stroke="black" d="M2612,-122.03C2612,-138.4 2612,-160 2612,-160 2612,-160 2035.69,-160 2035.69,-160"/>
<polygon fill="black" stroke="black" points="2035.69,-156.5 2025.69,-160 2035.69,-163.5 2035.69,-156.5"/>
</g>
<!-- ConfirmationTemplateComponent -->
<g id="node9" class="node">
<title>ConfirmationTemplateComponent</title>
<polygon fill="#ffffb3" stroke="black" points="2496.64,-122 2287.36,-122 2287.36,-86 2496.64,-86 2496.64,-122"/>
<text text-anchor="middle" x="2392" y="-99.8" font-family="Times,serif" font-size="14.00">ConfirmationTemplateComponent</text>
</g>
<!-- ConfirmationTemplateComponent&#45;&gt;AppModule -->
<g id="edge9" class="edge">
<title>ConfirmationTemplateComponent&#45;&gt;AppModule</title>
<path fill="none" stroke="black" d="M2392,-122.24C2392,-137.57 2392,-157 2392,-157 2392,-157 2035.75,-157 2035.75,-157"/>
<polygon fill="black" stroke="black" points="2035.75,-153.5 2025.75,-157 2035.75,-160.5 2035.75,-153.5"/>
</g>
<!-- HomeComponent -->
<g id="node10" class="node">
<title>HomeComponent</title>
<polygon fill="#ffffb3" stroke="black" points="2268.55,-122 2153.45,-122 2153.45,-86 2268.55,-86 2268.55,-122"/>
<text text-anchor="middle" x="2211" y="-99.8" font-family="Times,serif" font-size="14.00">HomeComponent</text>
</g>
<!-- HomeComponent&#45;&gt;AppModule -->
<g id="edge10" class="edge">
<title>HomeComponent&#45;&gt;AppModule</title>
<path fill="none" stroke="black" d="M2211,-122.05C2211,-136.37 2211,-154 2211,-154 2211,-154 2035.9,-154 2035.9,-154"/>
<polygon fill="black" stroke="black" points="2035.9,-150.5 2025.9,-154 2035.9,-157.5 2035.9,-150.5"/>
</g>
<!-- ItemDetailsComponent -->
<g id="node11" class="node">
<title>ItemDetailsComponent</title>
<polygon fill="#ffffb3" stroke="black" points="2135.14,-122 1988.86,-122 1988.86,-86 2135.14,-86 2135.14,-122"/>
<text text-anchor="middle" x="2062" y="-99.8" font-family="Times,serif" font-size="14.00">ItemDetailsComponent</text>
</g>
<!-- ItemDetailsComponent&#45;&gt;AppModule -->
<g id="edge11" class="edge">
<title>ItemDetailsComponent&#45;&gt;AppModule</title>
<path fill="none" stroke="black" d="M2007.25,-122.11C2007.25,-122.11 2007.25,-140.99 2007.25,-140.99"/>
<polygon fill="black" stroke="black" points="2003.75,-140.99 2007.25,-150.99 2010.75,-140.99 2003.75,-140.99"/>
</g>
<!-- ItemListComponent -->
<g id="node12" class="node">
<title>ItemListComponent</title>
<polygon fill="#ffffb3" stroke="black" points="1970.27,-122 1841.73,-122 1841.73,-86 1970.27,-86 1970.27,-122"/>
<text text-anchor="middle" x="1906" y="-99.8" font-family="Times,serif" font-size="14.00">ItemListComponent</text>
</g>
<!-- ItemListComponent&#45;&gt;AppModule -->
<g id="edge12" class="edge">
<title>ItemListComponent&#45;&gt;AppModule</title>
<path fill="none" stroke="black" d="M1956.28,-122.11C1956.28,-122.11 1956.28,-140.99 1956.28,-140.99"/>
<polygon fill="black" stroke="black" points="1952.78,-140.99 1956.28,-150.99 1959.78,-140.99 1952.78,-140.99"/>
</g>
<!-- ItemListDialog -->
<g id="node13" class="node">
<title>ItemListDialog</title>
<polygon fill="#ffffb3" stroke="black" points="1823.54,-122 1722.46,-122 1722.46,-86 1823.54,-86 1823.54,-122"/>
<text text-anchor="middle" x="1773" y="-99.8" font-family="Times,serif" font-size="14.00">ItemListDialog</text>
</g>
<!-- ItemListDialog&#45;&gt;AppModule -->
<g id="edge13" class="edge">
<title>ItemListDialog&#45;&gt;AppModule</title>
<path fill="none" stroke="black" d="M1773,-122.05C1773,-136.37 1773,-154 1773,-154 1773,-154 1932.31,-154 1932.31,-154"/>
<polygon fill="black" stroke="black" points="1932.31,-157.5 1942.31,-154 1932.31,-150.5 1932.31,-157.5"/>
</g>
<!-- LoginFormComponent -->
<g id="node14" class="node">
<title>LoginFormComponent</title>
<polygon fill="#ffffb3" stroke="black" points="1704.61,-122 1559.39,-122 1559.39,-86 1704.61,-86 1704.61,-122"/>
<text text-anchor="middle" x="1632" y="-99.8" font-family="Times,serif" font-size="14.00">LoginFormComponent</text>
</g>
<!-- LoginFormComponent&#45;&gt;AppModule -->
<g id="edge14" class="edge">
<title>LoginFormComponent&#45;&gt;AppModule</title>
<path fill="none" stroke="black" d="M1632,-122.24C1632,-137.57 1632,-157 1632,-157 1632,-157 1932.24,-157 1932.24,-157"/>
<polygon fill="black" stroke="black" points="1932.24,-160.5 1942.24,-157 1932.24,-153.5 1932.24,-160.5"/>
</g>
<!-- LogoutComponent -->
<g id="node15" class="node">
<title>LogoutComponent</title>
<polygon fill="#ffffb3" stroke="black" points="1541.78,-122 1420.22,-122 1420.22,-86 1541.78,-86 1541.78,-122"/>
<text text-anchor="middle" x="1481" y="-99.8" font-family="Times,serif" font-size="14.00">LogoutComponent</text>
</g>
<!-- LogoutComponent&#45;&gt;AppModule -->
<g id="edge15" class="edge">
<title>LogoutComponent&#45;&gt;AppModule</title>
<path fill="none" stroke="black" d="M1481,-122.03C1481,-138.4 1481,-160 1481,-160 1481,-160 1931.98,-160 1931.98,-160"/>
<polygon fill="black" stroke="black" points="1931.98,-163.5 1941.98,-160 1931.98,-156.5 1931.98,-163.5"/>
</g>
<!-- MailSenderComponent -->
<g id="node16" class="node">
<title>MailSenderComponent</title>
<polygon fill="#ffffb3" stroke="black" points="1402.15,-122 1255.85,-122 1255.85,-86 1402.15,-86 1402.15,-122"/>
<text text-anchor="middle" x="1329" y="-99.8" font-family="Times,serif" font-size="14.00">MailSenderComponent</text>
</g>
<!-- MailSenderComponent&#45;&gt;AppModule -->
<g id="edge16" class="edge">
<title>MailSenderComponent&#45;&gt;AppModule</title>
<path fill="none" stroke="black" d="M1329,-122.02C1329,-139.37 1329,-163 1329,-163 1329,-163 1932.03,-163 1932.03,-163"/>
<polygon fill="black" stroke="black" points="1932.03,-166.5 1942.03,-163 1932.03,-159.5 1932.03,-166.5"/>
</g>
<!-- NotFoundComponent -->
<g id="node17" class="node">
<title>NotFoundComponent</title>
<polygon fill="#ffffb3" stroke="black" points="1238.11,-122 1099.89,-122 1099.89,-86 1238.11,-86 1238.11,-122"/>
<text text-anchor="middle" x="1169" y="-99.8" font-family="Times,serif" font-size="14.00">NotFoundComponent</text>
</g>
<!-- NotFoundComponent&#45;&gt;AppModule -->
<g id="edge17" class="edge">
<title>NotFoundComponent&#45;&gt;AppModule</title>
<path fill="none" stroke="black" d="M1169,-122.27C1169,-140.56 1169,-166 1169,-166 1169,-166 1932.18,-166 1932.18,-166"/>
<polygon fill="black" stroke="black" points="1932.18,-169.5 1942.18,-166 1932.18,-162.5 1932.18,-169.5"/>
</g>
<!-- TemplateDetailDialog -->
<g id="node18" class="node">
<title>TemplateDetailDialog</title>
<polygon fill="#ffffb3" stroke="black" points="1081.68,-122 940.32,-122 940.32,-86 1081.68,-86 1081.68,-122"/>
<text text-anchor="middle" x="1011" y="-99.8" font-family="Times,serif" font-size="14.00">TemplateDetailDialog</text>
</g>
<!-- TemplateDetailDialog&#45;&gt;AppModule -->
<g id="edge18" class="edge">
<title>TemplateDetailDialog&#45;&gt;AppModule</title>
<path fill="none" stroke="black" d="M1011,-122.11C1011,-141.34 1011,-169 1011,-169 1011,-169 1932.19,-169 1932.19,-169"/>
<polygon fill="black" stroke="black" points="1932.19,-172.5 1942.19,-169 1932.19,-165.5 1932.19,-172.5"/>
</g>
<!-- TemplateListComponent -->
<g id="node19" class="node">
<title>TemplateListComponent</title>
<polygon fill="#ffffb3" stroke="black" points="921.98,-122 766.02,-122 766.02,-86 921.98,-86 921.98,-122"/>
<text text-anchor="middle" x="844" y="-99.8" font-family="Times,serif" font-size="14.00">TemplateListComponent</text>
</g>
<!-- TemplateListComponent&#45;&gt;AppModule -->
<g id="edge19" class="edge">
<title>TemplateListComponent&#45;&gt;AppModule</title>
<path fill="none" stroke="black" d="M844,-122.22C844,-142.37 844,-172 844,-172 844,-172 1932.07,-172 1932.07,-172"/>
<polygon fill="black" stroke="black" points="1932.07,-175.5 1942.07,-172 1932.07,-168.5 1932.07,-175.5"/>
</g>
<!-- ToolbarComponent -->
<g id="node20" class="node">
<title>ToolbarComponent</title>
<polygon fill="#ffffb3" stroke="black" points="747.65,-122 622.35,-122 622.35,-86 747.65,-86 747.65,-122"/>
<text text-anchor="middle" x="685" y="-99.8" font-family="Times,serif" font-size="14.00">ToolbarComponent</text>
</g>
<!-- ToolbarComponent&#45;&gt;AppModule -->
<g id="edge20" class="edge">
<title>ToolbarComponent&#45;&gt;AppModule</title>
<path fill="none" stroke="black" d="M685,-122.28C685,-143.32 685,-175 685,-175 685,-175 1932.25,-175 1932.25,-175"/>
<polygon fill="black" stroke="black" points="1932.25,-178.5 1942.25,-175 1932.25,-171.5 1932.25,-178.5"/>
</g>
<!-- AppComponent  -->
<g id="node23" class="node">
<title>AppComponent </title>
<polygon fill="#80b1d3" stroke="black" points="2038.44,-252 1929.56,-252 1929.56,-216 2038.44,-216 2038.44,-252"/>
<text text-anchor="middle" x="1984" y="-229.8" font-family="Times,serif" font-size="14.00">AppComponent </text>
</g>
<!-- AppModule&#45;&gt;AppComponent  -->
<g id="edge22" class="edge">
<title>AppModule&#45;&gt;AppComponent </title>
<path fill="none" stroke="black" stroke-dasharray="1,5" d="M1984,-187.11C1984,-187.11 1984,-205.99 1984,-205.99"/>
<polygon fill="black" stroke="black" points="1980.5,-205.99 1984,-215.99 1987.5,-205.99 1980.5,-205.99"/>
</g>
<!-- AppRoutingModule -->
<g id="node22" class="node">
<title>AppRoutingModule</title>
<polygon fill="#8dd3c7" stroke="black" points="4076.27,-122 4073.27,-126 4052.27,-126 4049.27,-122 3947.73,-122 3947.73,-86 4076.27,-86 4076.27,-122"/>
<text text-anchor="middle" x="4012" y="-99.8" font-family="Times,serif" font-size="14.00">AppRoutingModule</text>
</g>
<!-- AppRoutingModule&#45;&gt;AppModule -->
<g id="edge21" class="edge">
<title>AppRoutingModule&#45;&gt;AppModule</title>
<path fill="none" stroke="black" d="M4012,-122.15C4012,-145.76 4012,-184 4012,-184 4012,-184 2035.89,-184 2035.89,-184"/>
<polygon fill="black" stroke="black" points="2035.89,-180.5 2025.89,-184 2035.89,-187.5 2035.89,-180.5"/>
</g>
<!-- ComponentBridgingService -->
<g id="node24" class="node">
<title>ComponentBridgingService</title>
<ellipse fill="#fdb462" stroke="black" cx="479" cy="-104" rx="119.29" ry="18"/>
<text text-anchor="middle" x="479" y="-99.8" font-family="Times,serif" font-size="14.00">ComponentBridgingService</text>
</g>
<!-- ComponentBridgingService&#45;&gt;AppModule -->
<g id="edge23" class="edge">
<title>ComponentBridgingService&#45;&gt;AppModule</title>
<path fill="none" stroke="black" d="M479,-122.29C479,-144.21 479,-178 479,-178 479,-178 1932.18,-178 1932.18,-178"/>
<polygon fill="black" stroke="black" points="1932.18,-181.5 1942.18,-178 1932.18,-174.5 1932.18,-181.5"/>
</g>
<!-- JwtInterceptor -->
<g id="node25" class="node">
<title>JwtInterceptor</title>
<ellipse fill="#fdb462" stroke="black" cx="275" cy="-104" rx="66.61" ry="18"/>
<text text-anchor="middle" x="275" y="-99.8" font-family="Times,serif" font-size="14.00">JwtInterceptor</text>
</g>
<!-- JwtInterceptor&#45;&gt;AppModule -->
<g id="edge24" class="edge">
<title>JwtInterceptor&#45;&gt;AppModule</title>
<path fill="none" stroke="black" d="M275,-122.25C275,-145.02 275,-181 275,-181 275,-181 1932.18,-181 1932.18,-181"/>
<polygon fill="black" stroke="black" points="1932.18,-184.5 1942.18,-181 1932.18,-177.5 1932.18,-184.5"/>
</g>
<!-- RefreshInterceptor -->
<g id="node26" class="node">
<title>RefreshInterceptor</title>
<ellipse fill="#fdb462" stroke="black" cx="107" cy="-104" rx="83.34" ry="18"/>
<text text-anchor="middle" x="107" y="-99.8" font-family="Times,serif" font-size="14.00">RefreshInterceptor</text>
</g>
<!-- RefreshInterceptor&#45;&gt;AppModule -->
<g id="edge25" class="edge">
<title>RefreshInterceptor&#45;&gt;AppModule</title>
<path fill="none" stroke="black" d="M107,-122.15C107,-145.76 107,-184 107,-184 107,-184 1932.16,-184 1932.16,-184"/>
<polygon fill="black" stroke="black" points="1932.16,-187.5 1942.16,-184 1932.16,-180.5 1932.16,-187.5"/>
</g>
</g>
</svg>
