<?xml version="1.0" encoding="UTF-8" standalone="no"?>
<!DOCTYPE svg PUBLIC "-//W3C//DTD SVG 1.1//EN"
 "http://www.w3.org/Graphics/SVG/1.1/DTD/svg11.dtd">
<!-- Generated by graphviz version 2.44.1 (20200629.0846)
 -->
<!-- Title: dependencies Pages: 1 -->
<svg width="3964pt" height="284pt"
 viewBox="0.00 0.00 3964.00 284.00" xmlns="http://www.w3.org/2000/svg" xmlns:xlink="http://www.w3.org/1999/xlink">
<g id="graph0" class="graph" transform="scale(1 1) rotate(0) translate(4 280)">
<title>dependencies</title>
<polygon fill="white" stroke="transparent" points="-4,4 -4,-280 3960,-280 3960,4 -4,4"/>
<text text-anchor="start" x="1957.01" y="-42.4" font-family="sans-serif" font-weight="bold" font-size="14.00">Legend</text>
<polygon fill="#ffffb3" stroke="transparent" points="1744,-10 1744,-30 1764,-30 1764,-10 1744,-10"/>
<text text-anchor="start" x="1767.63" y="-15.4" font-family="sans-serif" font-size="14.00"> &#160;Declarations</text>
<polygon fill="#8dd3c7" stroke="transparent" points="1857,-10 1857,-30 1877,-30 1877,-10 1857,-10"/>
<text text-anchor="start" x="1880.73" y="-15.4" font-family="sans-serif" font-size="14.00"> &#160;Module</text>
<polygon fill="#80b1d3" stroke="transparent" points="1943,-10 1943,-30 1963,-30 1963,-10 1943,-10"/>
<text text-anchor="start" x="1966.78" y="-15.4" font-family="sans-serif" font-size="14.00"> &#160;Bootstrap</text>
<polygon fill="#fdb462" stroke="transparent" points="2040,-10 2040,-30 2060,-30 2060,-10 2040,-10"/>
<text text-anchor="start" x="2063.67" y="-15.4" font-family="sans-serif" font-size="14.00"> &#160;Providers</text>
<polygon fill="#fb8072" stroke="transparent" points="2136,-10 2136,-30 2156,-30 2156,-10 2136,-10"/>
<text text-anchor="start" x="2159.73" y="-15.4" font-family="sans-serif" font-size="14.00"> &#160;Exports</text>
<g id="clust1" class="cluster">
<title>cluster_AppModule</title>
<polygon fill="none" stroke="black" stroke-dasharray="1,5" points="8,-70 8,-268 3948,-268 3948,-70 8,-70"/>
</g>
<g id="clust22" class="cluster">
<title>cluster_AppModule_imports</title>
<polygon fill="none" stroke="black" points="3796,-78 3796,-130 3940,-130 3940,-78 3796,-78"/>
</g>
<g id="clust24" class="cluster">
<title>cluster_AppModule_bootstrap</title>
<polygon fill="none" stroke="black" points="1808,-208 1808,-260 1932,-260 1932,-208 1808,-208"/>
</g>
<g id="clust25" class="cluster">
<title>cluster_AppModule_providers</title>
<polygon fill="none" stroke="black" points="3198,-78 3198,-130 3788,-130 3788,-78 3198,-78"/>
</g>
<g id="clust2" class="cluster">
<title>cluster_AppModule_declarations</title>
<polygon fill="none" stroke="black" points="16,-78 16,-130 3190,-130 3190,-78 16,-78"/>
</g>
<!-- AppComponent -->
<g id="node1" class="node">
<title>AppComponent</title>
<polygon fill="#ffffb3" stroke="black" points="3181.94,-122 3076.06,-122 3076.06,-86 3181.94,-86 3181.94,-122"/>
<text text-anchor="middle" x="3129" y="-99.8" font-family="Times,serif" font-size="14.00">AppComponent</text>
</g>
<!-- AppModule -->
<g id="node20" class="node">
<title>AppModule</title>
<polygon fill="#8dd3c7" stroke="black" points="1911.66,-187 1908.66,-191 1887.66,-191 1884.66,-187 1828.34,-187 1828.34,-151 1911.66,-151 1911.66,-187"/>
<text text-anchor="middle" x="1870" y="-164.8" font-family="Times,serif" font-size="14.00">AppModule</text>
</g>
<!-- AppComponent&#45;&gt;AppModule -->
<g id="edge1" class="edge">
<title>AppComponent&#45;&gt;AppModule</title>
<path fill="none" stroke="black" d="M3129,-122.22C3129,-142.37 3129,-172 3129,-172 3129,-172 1921.89,-172 1921.89,-172"/>
<polygon fill="black" stroke="black" points="1921.89,-168.5 1911.89,-172 1921.89,-175.5 1921.89,-168.5"/>
</g>
<!-- BookingConfirmComponent -->
<g id="node2" class="node">
<title>BookingConfirmComponent</title>
<polygon fill="#ffffb3" stroke="black" points="3058.5,-122 2881.5,-122 2881.5,-86 3058.5,-86 3058.5,-122"/>
<text text-anchor="middle" x="2970" y="-99.8" font-family="Times,serif" font-size="14.00">BookingConfirmComponent</text>
</g>
<!-- BookingConfirmComponent&#45;&gt;AppModule -->
<g id="edge2" class="edge">
<title>BookingConfirmComponent&#45;&gt;AppModule</title>
<path fill="none" stroke="black" d="M2970,-122.11C2970,-141.34 2970,-169 2970,-169 2970,-169 1921.78,-169 1921.78,-169"/>
<polygon fill="black" stroke="black" points="1921.78,-165.5 1911.78,-169 1921.78,-172.5 1921.78,-165.5"/>
</g>
<!-- BookingConfirmationComponent -->
<g id="node3" class="node">
<title>BookingConfirmationComponent</title>
<polygon fill="#ffffb3" stroke="black" points="2863.49,-122 2658.51,-122 2658.51,-86 2863.49,-86 2863.49,-122"/>
<text text-anchor="middle" x="2761" y="-99.8" font-family="Times,serif" font-size="14.00">BookingConfirmationComponent</text>
</g>
<!-- BookingConfirmationComponent&#45;&gt;AppModule -->
<g id="edge3" class="edge">
<title>BookingConfirmationComponent&#45;&gt;AppModule</title>
<path fill="none" stroke="black" d="M2761,-122.27C2761,-140.56 2761,-166 2761,-166 2761,-166 1921.78,-166 1921.78,-166"/>
<polygon fill="black" stroke="black" points="1921.78,-162.5 1911.78,-166 1921.78,-169.5 1921.78,-162.5"/>
</g>
<!-- BookingDetailsComponent -->
<g id="node4" class="node">
<title>BookingDetailsComponent</title>
<polygon fill="#ffffb3" stroke="black" points="2640.71,-122 2471.29,-122 2471.29,-86 2640.71,-86 2640.71,-122"/>
<text text-anchor="middle" x="2556" y="-99.8" font-family="Times,serif" font-size="14.00">BookingDetailsComponent</text>
</g>
<!-- BookingDetailsComponent&#45;&gt;AppModule -->
<g id="edge4" class="edge">
<title>BookingDetailsComponent&#45;&gt;AppModule</title>
<path fill="none" stroke="black" d="M2556,-122.02C2556,-139.37 2556,-163 2556,-163 2556,-163 1921.88,-163 1921.88,-163"/>
<polygon fill="black" stroke="black" points="1921.88,-159.5 1911.88,-163 1921.88,-166.5 1921.88,-159.5"/>
</g>
<!-- BookingListComponent -->
<g id="node5" class="node">
<title>BookingListComponent</title>
<polygon fill="#ffffb3" stroke="black" points="2453.84,-122 2302.16,-122 2302.16,-86 2453.84,-86 2453.84,-122"/>
<text text-anchor="middle" x="2378" y="-99.8" font-family="Times,serif" font-size="14.00">BookingListComponent</text>
</g>
<!-- BookingListComponent&#45;&gt;AppModule -->
<g id="edge5" class="edge">
<title>BookingListComponent&#45;&gt;AppModule</title>
<path fill="none" stroke="black" d="M2378,-122.03C2378,-138.4 2378,-160 2378,-160 2378,-160 1922,-160 1922,-160"/>
<polygon fill="black" stroke="black" points="1922,-156.5 1912,-160 1922,-163.5 1922,-156.5"/>
</g>
<!-- BookingListDialog -->
<g id="node6" class="node">
<title>BookingListDialog</title>
<polygon fill="#ffffb3" stroke="black" points="2284.11,-122 2159.89,-122 2159.89,-86 2284.11,-86 2284.11,-122"/>
<text text-anchor="middle" x="2222" y="-99.8" font-family="Times,serif" font-size="14.00">BookingListDialog</text>
</g>
<!-- BookingListDialog&#45;&gt;AppModule -->
<g id="edge6" class="edge">
<title>BookingListDialog&#45;&gt;AppModule</title>
<path fill="none" stroke="black" d="M2222,-122.24C2222,-137.57 2222,-157 2222,-157 2222,-157 1921.76,-157 1921.76,-157"/>
<polygon fill="black" stroke="black" points="1921.76,-153.5 1911.76,-157 1921.76,-160.5 1921.76,-153.5"/>
</g>
<!-- BookingSummaryDialog -->
<g id="node7" class="node">
<title>BookingSummaryDialog</title>
<polygon fill="#ffffb3" stroke="black" points="2142.27,-122 1985.73,-122 1985.73,-86 2142.27,-86 2142.27,-122"/>
<text text-anchor="middle" x="2064" y="-99.8" font-family="Times,serif" font-size="14.00">BookingSummaryDialog</text>
</g>
<!-- BookingSummaryDialog&#45;&gt;AppModule -->
<g id="edge7" class="edge">
<title>BookingSummaryDialog&#45;&gt;AppModule</title>
<path fill="none" stroke="black" d="M2064,-122.05C2064,-136.37 2064,-154 2064,-154 2064,-154 1922.1,-154 1922.1,-154"/>
<polygon fill="black" stroke="black" points="1922.1,-150.5 1912.1,-154 1922.1,-157.5 1922.1,-150.5"/>
</g>
<!-- ConfirmationDialogComponent -->
<g id="node8" class="node">
<title>ConfirmationDialogComponent</title>
<polygon fill="#ffffb3" stroke="black" points="1967.37,-122 1772.63,-122 1772.63,-86 1967.37,-86 1967.37,-122"/>
<text text-anchor="middle" x="1870" y="-99.8" font-family="Times,serif" font-size="14.00">ConfirmationDialogComponent</text>
</g>
<!-- ConfirmationDialogComponent&#45;&gt;AppModule -->
<g id="edge8" class="edge">
<title>ConfirmationDialogComponent&#45;&gt;AppModule</title>
<path fill="none" stroke="black" d="M1870,-122.11C1870,-122.11 1870,-140.99 1870,-140.99"/>
<polygon fill="black" stroke="black" points="1866.5,-140.99 1870,-150.99 1873.5,-140.99 1866.5,-140.99"/>
</g>
<!-- ConfirmationTemplateComponent -->
<g id="node9" class="node">
<title>ConfirmationTemplateComponent</title>
<polygon fill="#ffffb3" stroke="black" points="1754.64,-122 1545.36,-122 1545.36,-86 1754.64,-86 1754.64,-122"/>
<text text-anchor="middle" x="1650" y="-99.8" font-family="Times,serif" font-size="14.00">ConfirmationTemplateComponent</text>
</g>
<!-- ConfirmationTemplateComponent&#45;&gt;AppModule -->
<g id="edge9" class="edge">
<title>ConfirmationTemplateComponent&#45;&gt;AppModule</title>
<path fill="none" stroke="black" d="M1650,-122.05C1650,-136.37 1650,-154 1650,-154 1650,-154 1818.1,-154 1818.1,-154"/>
<polygon fill="black" stroke="black" points="1818.1,-157.5 1828.1,-154 1818.1,-150.5 1818.1,-157.5"/>
</g>
<!-- HomeComponent -->
<g id="node10" class="node">
<title>HomeComponent</title>
<polygon fill="#ffffb3" stroke="black" points="1526.55,-122 1411.45,-122 1411.45,-86 1526.55,-86 1526.55,-122"/>
<text text-anchor="middle" x="1469" y="-99.8" font-family="Times,serif" font-size="14.00">HomeComponent</text>
</g>
<!-- HomeComponent&#45;&gt;AppModule -->
<g id="edge10" class="edge">
<title>HomeComponent&#45;&gt;AppModule</title>
<path fill="none" stroke="black" d="M1469,-122.24C1469,-137.57 1469,-157 1469,-157 1469,-157 1818.22,-157 1818.22,-157"/>
<polygon fill="black" stroke="black" points="1818.22,-160.5 1828.22,-157 1818.22,-153.5 1818.22,-160.5"/>
</g>
<!-- ItemDetailsComponent -->
<g id="node11" class="node">
<title>ItemDetailsComponent</title>
<polygon fill="#ffffb3" stroke="black" points="1393.14,-122 1246.86,-122 1246.86,-86 1393.14,-86 1393.14,-122"/>
<text text-anchor="middle" x="1320" y="-99.8" font-family="Times,serif" font-size="14.00">ItemDetailsComponent</text>
</g>
<!-- ItemDetailsComponent&#45;&gt;AppModule -->
<g id="edge11" class="edge">
<title>ItemDetailsComponent&#45;&gt;AppModule</title>
<path fill="none" stroke="black" d="M1320,-122.03C1320,-138.4 1320,-160 1320,-160 1320,-160 1818.21,-160 1818.21,-160"/>
<polygon fill="black" stroke="black" points="1818.21,-163.5 1828.21,-160 1818.21,-156.5 1818.21,-163.5"/>
</g>
<!-- ItemListComponent -->
<g id="node12" class="node">
<title>ItemListComponent</title>
<polygon fill="#ffffb3" stroke="black" points="1228.27,-122 1099.73,-122 1099.73,-86 1228.27,-86 1228.27,-122"/>
<text text-anchor="middle" x="1164" y="-99.8" font-family="Times,serif" font-size="14.00">ItemListComponent</text>
</g>
<!-- ItemListComponent&#45;&gt;AppModule -->
<g id="edge12" class="edge">
<title>ItemListComponent&#45;&gt;AppModule</title>
<path fill="none" stroke="black" d="M1164,-122.02C1164,-139.37 1164,-163 1164,-163 1164,-163 1818.21,-163 1818.21,-163"/>
<polygon fill="black" stroke="black" points="1818.21,-166.5 1828.21,-163 1818.21,-159.5 1818.21,-166.5"/>
</g>
<!-- ItemListDialog -->
<g id="node13" class="node">
<title>ItemListDialog</title>
<polygon fill="#ffffb3" stroke="black" points="1081.54,-122 980.46,-122 980.46,-86 1081.54,-86 1081.54,-122"/>
<text text-anchor="middle" x="1031" y="-99.8" font-family="Times,serif" font-size="14.00">ItemListDialog</text>
</g>
<!-- ItemListDialog&#45;&gt;AppModule -->
<g id="edge13" class="edge">
<title>ItemListDialog&#45;&gt;AppModule</title>
<path fill="none" stroke="black" d="M1031,-122.27C1031,-140.56 1031,-166 1031,-166 1031,-166 1818.11,-166 1818.11,-166"/>
<polygon fill="black" stroke="black" points="1818.11,-169.5 1828.11,-166 1818.11,-162.5 1818.11,-169.5"/>
</g>
<!-- LoginFormComponent -->
<g id="node14" class="node">
<title>LoginFormComponent</title>
<polygon fill="#ffffb3" stroke="black" points="962.61,-122 817.39,-122 817.39,-86 962.61,-86 962.61,-122"/>
<text text-anchor="middle" x="890" y="-99.8" font-family="Times,serif" font-size="14.00">LoginFormComponent</text>
</g>
<!-- LoginFormComponent&#45;&gt;AppModule -->
<g id="edge14" class="edge">
<title>LoginFormComponent&#45;&gt;AppModule</title>
<path fill="none" stroke="black" d="M890,-122.11C890,-141.34 890,-169 890,-169 890,-169 1818.2,-169 1818.2,-169"/>
<polygon fill="black" stroke="black" points="1818.2,-172.5 1828.2,-169 1818.2,-165.5 1818.2,-172.5"/>
</g>
<!-- LogoutComponent -->
<g id="node15" class="node">
<title>LogoutComponent</title>
<polygon fill="#ffffb3" stroke="black" points="799.78,-122 678.22,-122 678.22,-86 799.78,-86 799.78,-122"/>
<text text-anchor="middle" x="739" y="-99.8" font-family="Times,serif" font-size="14.00">LogoutComponent</text>
</g>
<!-- LogoutComponent&#45;&gt;AppModule -->
<g id="edge15" class="edge">
<title>LogoutComponent&#45;&gt;AppModule</title>
<path fill="none" stroke="black" d="M739,-122.22C739,-142.37 739,-172 739,-172 739,-172 1818.07,-172 1818.07,-172"/>
<polygon fill="black" stroke="black" points="1818.07,-175.5 1828.07,-172 1818.07,-168.5 1818.07,-175.5"/>
</g>
<!-- MailSenderComponent -->
<g id="node16" class="node">
<title>MailSenderComponent</title>
<polygon fill="#ffffb3" stroke="black" points="660.15,-122 513.85,-122 513.85,-86 660.15,-86 660.15,-122"/>
<text text-anchor="middle" x="587" y="-99.8" font-family="Times,serif" font-size="14.00">MailSenderComponent</text>
</g>
<!-- MailSenderComponent&#45;&gt;AppModule -->
<g id="edge16" class="edge">
<title>MailSenderComponent&#45;&gt;AppModule</title>
<path fill="none" stroke="black" d="M587,-122.28C587,-143.32 587,-175 587,-175 587,-175 1818.04,-175 1818.04,-175"/>
<polygon fill="black" stroke="black" points="1818.04,-178.5 1828.04,-175 1818.04,-171.5 1818.04,-178.5"/>
</g>
<!-- NotFoundComponent -->
<g id="node17" class="node">
<title>NotFoundComponent</title>
<polygon fill="#ffffb3" stroke="black" points="496.11,-122 357.89,-122 357.89,-86 496.11,-86 496.11,-122"/>
<text text-anchor="middle" x="427" y="-99.8" font-family="Times,serif" font-size="14.00">NotFoundComponent</text>
</g>
<!-- NotFoundComponent&#45;&gt;AppModule -->
<g id="edge17" class="edge">
<title>NotFoundComponent&#45;&gt;AppModule</title>
<path fill="none" stroke="black" d="M427,-122.29C427,-144.21 427,-178 427,-178 427,-178 1817.98,-178 1817.98,-178"/>
<polygon fill="black" stroke="black" points="1817.98,-181.5 1827.98,-178 1817.98,-174.5 1817.98,-181.5"/>
</g>
<!-- TemplateDetailDialog -->
<g id="node18" class="node">
<title>TemplateDetailDialog</title>
<polygon fill="#ffffb3" stroke="black" points="339.68,-122 198.32,-122 198.32,-86 339.68,-86 339.68,-122"/>
<text text-anchor="middle" x="269" y="-99.8" font-family="Times,serif" font-size="14.00">TemplateDetailDialog</text>
</g>
<!-- TemplateDetailDialog&#45;&gt;AppModule -->
<g id="edge18" class="edge">
<title>TemplateDetailDialog&#45;&gt;AppModule</title>
<path fill="none" stroke="black" d="M269,-122.25C269,-145.02 269,-181 269,-181 269,-181 1818,-181 1818,-181"/>
<polygon fill="black" stroke="black" points="1818,-184.5 1828,-181 1818,-177.5 1818,-184.5"/>
</g>
<!-- TemplateListComponent -->
<g id="node19" class="node">
<title>TemplateListComponent</title>
<polygon fill="#ffffb3" stroke="black" points="179.98,-122 24.02,-122 24.02,-86 179.98,-86 179.98,-122"/>
<text text-anchor="middle" x="102" y="-99.8" font-family="Times,serif" font-size="14.00">TemplateListComponent</text>
</g>
<!-- TemplateListComponent&#45;&gt;AppModule -->
<g id="edge19" class="edge">
<title>TemplateListComponent&#45;&gt;AppModule</title>
<path fill="none" stroke="black" d="M102,-122.15C102,-145.76 102,-184 102,-184 102,-184 1818.04,-184 1818.04,-184"/>
<polygon fill="black" stroke="black" points="1818.04,-187.5 1828.04,-184 1818.04,-180.5 1818.04,-187.5"/>
</g>
<!-- AppComponent  -->
<g id="node22" class="node">
<title>AppComponent </title>
<polygon fill="#80b1d3" stroke="black" points="1924.44,-252 1815.56,-252 1815.56,-216 1924.44,-216 1924.44,-252"/>
<text text-anchor="middle" x="1870" y="-229.8" font-family="Times,serif" font-size="14.00">AppComponent </text>
</g>
<!-- AppModule&#45;&gt;AppComponent  -->
<g id="edge21" class="edge">
<title>AppModule&#45;&gt;AppComponent </title>
<path fill="none" stroke="black" stroke-dasharray="1,5" d="M1870,-187.11C1870,-187.11 1870,-205.99 1870,-205.99"/>
<polygon fill="black" stroke="black" points="1866.5,-205.99 1870,-215.99 1873.5,-205.99 1866.5,-205.99"/>
</g>
<!-- AppRoutingModule -->
<g id="node21" class="node">
<title>AppRoutingModule</title>
<polygon fill="#8dd3c7" stroke="black" points="3932.27,-122 3929.27,-126 3908.27,-126 3905.27,-122 3803.73,-122 3803.73,-86 3932.27,-86 3932.27,-122"/>
<text text-anchor="middle" x="3868" y="-99.8" font-family="Times,serif" font-size="14.00">AppRoutingModule</text>
</g>
<!-- AppRoutingModule&#45;&gt;AppModule -->
<g id="edge20" class="edge">
<title>AppRoutingModule&#45;&gt;AppModule</title>
<path fill="none" stroke="black" d="M3868,-122.15C3868,-145.76 3868,-184 3868,-184 3868,-184 1921.73,-184 1921.73,-184"/>
<polygon fill="black" stroke="black" points="1921.73,-180.5 1911.73,-184 1921.73,-187.5 1921.73,-180.5"/>
</g>
<!-- ComponentBridgingService -->
<g id="node23" class="node">
<title>ComponentBridgingService</title>
<ellipse fill="#fdb462" stroke="black" cx="3661" cy="-104" rx="119.29" ry="18"/>
<text text-anchor="middle" x="3661" y="-99.8" font-family="Times,serif" font-size="14.00">ComponentBridgingService</text>
</g>
<!-- ComponentBridgingService&#45;&gt;AppModule -->
<g id="edge22" class="edge">
<title>ComponentBridgingService&#45;&gt;AppModule</title>
<path fill="none" stroke="black" d="M3661,-122.25C3661,-145.02 3661,-181 3661,-181 3661,-181 1922.07,-181 1922.07,-181"/>
<polygon fill="black" stroke="black" points="1922.07,-177.5 1912.07,-181 1922.07,-184.5 1922.07,-177.5"/>
</g>
<!-- JwtInterceptor -->
<g id="node24" class="node">
<title>JwtInterceptor</title>
<ellipse fill="#fdb462" stroke="black" cx="3457" cy="-104" rx="66.61" ry="18"/>
<text text-anchor="middle" x="3457" y="-99.8" font-family="Times,serif" font-size="14.00">JwtInterceptor</text>
</g>
<!-- JwtInterceptor&#45;&gt;AppModule -->
<g id="edge23" class="edge">
<title>JwtInterceptor&#45;&gt;AppModule</title>
<path fill="none" stroke="black" d="M3457,-122.29C3457,-144.21 3457,-178 3457,-178 3457,-178 1922.04,-178 1922.04,-178"/>
<polygon fill="black" stroke="black" points="1922.04,-174.5 1912.04,-178 1922.04,-181.5 1922.04,-174.5"/>
</g>
<!-- RefreshInterceptor -->
<g id="node25" class="node">
<title>RefreshInterceptor</title>
<ellipse fill="#fdb462" stroke="black" cx="3289" cy="-104" rx="83.34" ry="18"/>
<text text-anchor="middle" x="3289" y="-99.8" font-family="Times,serif" font-size="14.00">RefreshInterceptor</text>
</g>
<!-- RefreshInterceptor&#45;&gt;AppModule -->
<g id="edge24" class="edge">
<title>RefreshInterceptor&#45;&gt;AppModule</title>
<path fill="none" stroke="black" d="M3289,-122.28C3289,-143.32 3289,-175 3289,-175 3289,-175 1921.7,-175 1921.7,-175"/>
<polygon fill="black" stroke="black" points="1921.7,-171.5 1911.7,-175 1921.7,-178.5 1921.7,-171.5"/>
</g>
</g>
</svg>
